<?xml version="1.0" standalone="no"?>
<!DOCTYPE svg PUBLIC "-//W3C//DTD SVG 20010904//EN"
 "http://www.w3.org/TR/2001/REC-SVG-20010904/DTD/svg10.dtd">
<svg version="1.0" xmlns="http://www.w3.org/2000/svg"
 width="500.000000pt" height="500.000000pt" viewBox="0 0 500.000000 500.000000"
 preserveAspectRatio="xMidYMid meet">

<g transform="translate(0.000000,500.000000) scale(0.100000,-0.100000)"
fill="#000000" stroke="none">
<path d="M2478 4193 c17 -2 47 -2 65 0 17 2 3 4 -33 4 -36 0 -50 -2 -32 -4z"/>
<path d="M2648 4183 c7 -3 16 -2 19 1 4 3 -2 6 -13 5 -11 0 -14 -3 -6 -6z"/>
<path d="M2207 3883 c-7 -17 -12 -76 -12 -148 0 -112 2 -124 29 -180 31 -64
127 -166 196 -210 l40 -25 0 -115 c0 -63 -2 -115 -5 -115 -2 0 -23 33 -45 74
-77 140 -215 233 -362 242 -98 7 -105 1 -89 -73 19 -89 47 -137 115 -200 78
-73 132 -100 254 -124 53 -11 104 -27 112 -35 9 -9 16 -41 18 -89 4 -68 2 -75
-14 -75 -31 0 -468 -102 -481 -113 -10 -7 -13 -61 -13 -207 l0 -197 40 -27 40
-26 2 191 3 192 215 48 c118 27 261 62 318 77 l102 29 0 -320 0 -319 31 6 c17
3 38 6 45 6 12 0 14 53 14 305 0 187 4 305 10 305 5 0 58 -20 117 -44 l108
-45 -4 -210 c-2 -116 1 -211 5 -211 5 0 26 15 46 33 l37 32 3 209 3 210 -90
36 c-49 20 -134 54 -188 74 l-97 38 -69 -21 c-38 -12 -74 -21 -80 -21 -7 0
-11 36 -11 105 0 123 8 138 86 150 70 10 151 43 216 87 68 46 100 78 135 135
37 63 72 216 52 229 -17 10 -153 -16 -207 -41 -136 -62 -194 -123 -249 -260
l-28 -70 -3 70 c-2 39 2 107 9 152 16 109 7 182 -36 269 -46 93 -119 167 -209
210 -39 19 -76 34 -83 34 -8 0 -19 -12 -26 -27z"/>
<path d="M1450 3370 c0 -5 5 -10 11 -10 5 0 7 5 4 10 -3 6 -8 10 -11 10 -2 0
-4 -4 -4 -10z"/>
<path d="M1423 3125 c0 -44 2 -61 4 -37 2 23 2 59 0 80 -2 20 -4 1 -4 -43z"/>
<path d="M1431 2964 c0 -11 3 -14 6 -6 3 7 2 16 -1 19 -3 4 -6 -2 -5 -13z"/>
<path d="M2523 2629 l-33 -10 0 -184 0 -185 43 0 42 0 0 195 c0 124 -4 195
-10 194 -5 0 -25 -5 -42 -10z"/>
<path d="M2328 2593 c-16 -4 -18 -20 -18 -158 0 -165 0 -165 56 -165 l24 0 0
165 c0 165 0 165 -22 164 -13 -1 -31 -3 -40 -6z"/>
<path d="M2162 2559 l-33 -10 3 -122 3 -122 38 -6 37 -6 0 139 c0 76 -3 138
-7 137 -5 0 -23 -5 -41 -10z"/>
<path d="M1770 2426 c0 -2 8 -10 18 -17 15 -13 16 -12 3 4 -13 16 -21 21 -21
13z"/>
<path d="M3233 2343 c4 -3 -1 -16 -10 -27 -18 -21 -18 -21 4 -2 20 16 23 36 6
36 -4 0 -3 -3 0 -7z"/>
<path d="M2328 2043 c7 -3 16 -2 19 1 4 3 -2 6 -13 5 -11 0 -14 -3 -6 -6z"/>
</g>
</svg>
